<svg width="150" height="150" viewBox="0 0 150 150" fill="none" xmlns="http://www.w3.org/2000/svg">
<path fill-rule="evenodd" clip-rule="evenodd" d="M13.5044 21.666H134.705C139.38 21.666 143.196 25.4275 143.196 30.0359V74.8513C141.365 73.0896 139.353 71.512 137.187 70.1535V62.9364H11.0228V109.186C11.0228 111.124 12.6452 112.723 14.608 112.723H82.2318C82.9428 114.785 83.8432 116.766 84.9 118.646H13.5044C8.82947 118.646 5 114.888 5 110.277V30.0494C5 25.4275 8.81574 21.666 13.5044 21.666ZM26.4341 100.288C24.4795 100.288 22.8956 98.7243 22.8956 96.7976C22.8956 94.8736 24.4795 93.3095 26.4341 93.3095H58.6291C60.5836 93.3095 62.1675 94.8736 62.1675 96.7976C62.1675 98.7243 60.5836 100.288 58.6291 100.288H26.4341ZM26.4341 83.5432C24.4795 83.5432 22.8956 81.9818 22.8956 80.0551C22.8956 78.1284 24.4795 76.567 26.4341 76.567H36.064C38.0185 76.567 39.6052 78.1284 39.6052 80.0551C39.6052 81.9818 38.0185 83.5432 36.064 83.5432H26.4341ZM46.7755 83.5432C44.821 83.5432 43.2371 81.9818 43.2371 80.0551C43.2371 78.1284 44.821 76.567 46.7755 76.567H53.7894C55.7439 76.567 57.3279 78.1284 57.3279 80.0551C57.3279 81.9818 55.7439 83.5432 53.7894 83.5432H46.7755ZM65.0856 83.5432C63.1311 83.5432 61.5471 81.9818 61.5471 80.0551C61.5471 78.1284 63.1311 76.567 65.0856 76.567H72.0638C74.0183 76.567 75.6023 78.1284 75.6023 80.0551C75.6023 81.9818 74.0183 83.5432 72.0638 83.5432H65.0856ZM117.334 73.1681C132.915 73.1681 145.551 85.6269 145.551 100.984C145.551 116.346 132.915 128.805 117.334 128.805C101.75 128.805 89.1111 116.346 89.1111 100.984C89.1111 85.6269 101.75 73.1681 117.334 73.1681ZM109.431 96.9464L113.878 101.062L124.331 90.414C125.298 89.4506 125.901 88.6767 127.087 89.8836L130.942 93.7776C132.21 95.0089 132.147 95.7368 130.95 96.8842L116.082 111.473C113.565 113.905 114.001 114.054 111.448 111.562L102.941 103.219C102.409 102.656 102.466 102.083 103.048 101.512L107.523 96.9383C108.201 96.2347 108.742 96.297 109.431 96.9464ZM11.0228 40.3786H137.173V31.1373C137.173 29.2024 135.551 27.6032 133.588 27.6032H14.608C12.6452 27.6032 11.0228 29.2024 11.0228 31.1373V40.3786Z" fill="black"/>
</svg>
