<svg width="151" height="150" viewBox="0 0 151 150" fill="none" xmlns="http://www.w3.org/2000/svg">
<path d="M44.1895 84.3695C44.1895 85.3508 43.3916 86.1359 42.4219 86.1359C41.4399 86.1359 40.6543 85.3386 40.6543 84.3695V41.1053H3.53516V128.296H9.66031C10.6423 128.296 11.4279 129.093 11.4279 130.062C11.4279 131.044 10.63 131.829 9.66031 131.829H1.76758C0.78559 131.829 0 131.032 0 130.062V40.1608C0 39.4493 0.294596 38.7992 0.761041 38.3208C1.22748 37.8546 1.87805 37.5602 2.60227 37.5602H40.6543V3.10344C40.6543 2.25705 40.998 1.47199 41.5626 0.919993V0.907726C42.1273 0.343464 42.9006 0 43.7598 0H106.791C107.65 0 108.424 0.343464 108.988 0.907726L109.123 1.05493C109.602 1.60692 109.909 2.31838 109.909 3.10344V37.5602H148.231C148.943 37.5602 149.594 37.8546 150.06 38.3208L150.072 38.333C150.539 38.7992 150.833 39.4493 150.833 40.1608V130.062C150.833 131.044 150.035 131.829 149.066 131.829H137.847C136.865 131.829 136.079 131.032 136.079 130.062C136.079 129.081 136.877 128.296 137.847 128.296H147.298V41.1053H109.897V83.8543C109.897 84.8356 109.099 85.6207 108.129 85.6207C107.147 85.6207 106.362 84.8234 106.362 83.8543V3.53277H44.1895V84.3695ZM119.25 84.0751H138.767C138.927 84.0751 139.062 84.1732 139.062 84.2836V90.0489C139.062 90.1716 138.927 90.2697 138.767 90.2697H119.25C119.091 90.2697 118.956 90.1716 118.956 90.0489V84.2836C118.956 84.1732 119.091 84.0751 119.25 84.0751ZM11.9189 84.0751H31.4359C31.5955 84.0751 31.7305 84.1732 31.7305 84.2836V90.0489C31.7305 90.1716 31.5955 90.2697 31.4359 90.2697H11.9189C11.7593 90.2697 11.6243 90.1716 11.6243 90.0489V84.2836C11.6243 84.1732 11.7593 84.0751 11.9189 84.0751ZM52.119 10.3898H98.4443C99.2176 10.3898 99.8559 11.0276 99.8559 11.8004V26.9006C99.8559 27.6734 99.2176 28.3113 98.4443 28.3113H52.119C51.3457 28.3113 50.7074 27.6734 50.7074 26.9006V11.8004C50.6951 11.0276 51.3334 10.3898 52.119 10.3898ZM119.557 128.824C118.268 126.235 116.636 124.04 114.721 121.979C118.305 123.365 121.975 124.739 124.688 126.444C129.622 129.535 129.991 133.276 130.396 138.649H105.932C105.932 138.612 105.932 138.563 105.932 138.526L105.478 134.687L107.233 136.208L115.825 128.738L119.557 128.824ZM32.0128 122.764L35.1183 131.89L36.6772 126.468L35.9162 125.634C35.5725 125.131 35.4989 124.69 35.683 124.309C36.1003 123.488 36.9596 123.647 37.7574 123.647C38.5921 123.647 39.6355 123.488 39.8933 124.543C39.9792 124.898 39.8687 125.266 39.6232 125.647L38.8622 126.481L40.4211 131.902L43.232 122.776C43.6371 123.144 44.214 123.451 44.8768 123.721C44.6436 124.211 44.4349 124.714 44.2508 125.254C43.7721 126.64 43.4652 128.173 43.3302 129.878H43.3425C43.3425 129.915 43.3425 129.964 43.3302 130.001L42.6551 138.661H20.1799C18.8296 138.563 18.1422 137.864 18.0318 136.662L18.4982 131.878C18.6332 130.173 19.1119 128.836 19.8853 127.805C20.4008 127.131 21.0391 126.628 21.7388 126.235C23.9728 124.947 29.9875 124.592 32.0128 122.764ZM30.4907 109.823C30.1839 109.847 29.9629 109.921 29.7911 110.019C29.6929 110.08 29.6315 110.166 29.5824 110.264C29.5333 110.375 29.5087 110.522 29.5087 110.681C29.521 111.184 29.7911 111.859 30.3189 112.632L30.3311 112.644L32.0619 115.404C32.7493 116.508 33.4858 117.624 34.3696 118.446C35.2165 119.219 36.2599 119.746 37.6224 119.759C39.1077 119.759 40.1879 119.219 41.0716 118.397C41.9923 117.538 42.7287 116.336 43.453 115.146L45.4047 111.932C45.7975 111.037 45.9202 110.497 45.7975 110.24C45.7238 110.08 45.3924 110.043 44.8646 110.08C44.5209 110.154 44.1772 110.092 43.7967 109.896L44.7664 106.977C41.1944 106.928 38.7394 106.314 35.8548 104.462C34.9097 103.861 34.6151 103.162 33.6699 103.223C32.9457 103.358 32.3442 103.689 31.8655 104.205C31.3991 104.695 31.0554 105.37 30.8344 106.241L31.4113 109.749C31.1045 109.933 30.7976 109.945 30.4907 109.823ZM45.9693 108.952C46.3867 109.074 46.6935 109.32 46.8899 109.688C47.1845 110.289 47.074 111.172 46.5217 112.423C46.5094 112.448 46.4971 112.472 46.4848 112.497L44.5086 115.747C43.7476 117.011 42.962 118.274 41.9186 119.256C40.8261 120.274 39.4882 120.948 37.647 120.948C35.9285 120.948 34.6396 120.286 33.584 119.317C32.5652 118.385 31.7919 117.195 31.0676 116.03L29.3369 113.27C28.6863 112.3 28.3549 111.417 28.3303 110.694C28.3181 110.338 28.3794 110.019 28.5145 109.737C28.6495 109.442 28.8704 109.185 29.1528 109.001C29.2878 108.903 29.4474 108.829 29.6315 108.768C29.521 107.296 29.4842 105.468 29.5578 103.922C29.5947 103.542 29.6683 103.174 29.7665 102.794C30.2084 101.212 31.3254 99.9358 32.7002 99.0648C33.1912 98.7582 33.719 98.5006 34.2837 98.2921C37.6224 97.0899 42.0414 97.7401 44.4104 100.304C45.3801 101.346 45.9816 102.733 46.1043 104.56L45.9693 108.952ZM63.4364 96.7342C63.0436 96.7833 62.749 96.8814 62.5281 97.0163C62.3808 97.1145 62.2826 97.2371 62.2212 97.3721C62.1476 97.5438 62.1107 97.7523 62.1107 97.9854C62.1353 98.7337 62.5404 99.7395 63.3137 100.893L63.3259 100.917L65.9159 105.039C66.947 106.682 68.0272 108.351 69.3652 109.577C70.6417 110.743 72.1761 111.528 74.2137 111.528C76.4232 111.528 78.0435 110.718 79.3446 109.491C80.7194 108.203 81.8241 106.425 82.8921 104.646L85.8012 99.8622C86.3904 98.5251 86.5622 97.7155 86.3781 97.3475C86.2554 97.1022 85.7521 97.0409 84.8929 97.1267C84.8315 97.1267 84.7578 97.1267 84.6964 97.1267C84.3405 97.1267 83.96 97.0409 83.5303 96.8446L84.8438 92.4777C79.5042 92.4164 75.8586 91.4841 71.5378 88.7241C70.1139 87.8164 69.6966 86.786 68.2727 86.8841C67.2048 87.0927 66.2965 87.5711 65.5845 88.3439C64.8971 89.0799 64.3816 90.0857 64.0379 91.386L64.9585 96.6729C64.4307 96.9182 63.9151 96.9427 63.4364 96.7342ZM65.8423 116.03L70.4822 129.658L72.8144 121.574L71.6728 120.323C71.1573 119.575 71.0468 118.912 71.3291 118.348C71.9429 117.121 73.2317 117.354 74.4224 117.354C75.6744 117.354 77.2211 117.121 77.6139 118.679C77.7489 119.207 77.577 119.746 77.2088 120.323L76.0672 121.574L78.3995 129.658L82.5975 116.03C85.6293 118.753 93.4239 119.305 96.7626 121.157C97.671 121.66 98.4934 122.285 99.193 123.083C99.2053 122.997 99.2299 122.899 99.279 122.825C99.6472 122.101 100.408 122.236 101.12 122.236C101.869 122.236 102.79 122.101 103.023 123.034C103.096 123.34 102.998 123.672 102.79 124.015L102.114 124.763L103.502 129.572L101.722 130.982L102.311 138.698C102.139 140.501 101.12 141.532 99.1071 141.691H49.3449C47.3318 141.532 46.313 140.501 46.1412 138.698L46.8408 129.609C47.0372 127.069 47.7492 125.058 48.9153 123.524C49.6763 122.519 50.6338 121.77 51.6894 121.181C55.0159 119.305 62.8104 118.753 65.8423 116.03ZM86.6604 95.4217C87.2864 95.6057 87.7529 95.9614 88.0352 96.5257C88.4771 97.4211 88.3053 98.7337 87.4828 100.61C87.4706 100.647 87.446 100.684 87.4337 100.721L84.4755 105.578C83.3339 107.467 82.1678 109.344 80.6089 110.804C78.9764 112.325 76.9756 113.343 74.2383 113.331C71.6728 113.331 69.7457 112.35 68.1622 110.902C66.6402 109.516 65.4986 107.737 64.3939 105.995L61.8039 101.874C60.8341 100.439 60.3432 99.1139 60.3063 98.0222C60.2941 97.4947 60.38 97.0163 60.5764 96.5993C60.785 96.1577 61.1042 95.7774 61.5338 95.4953C61.7425 95.3481 61.988 95.2377 62.2458 95.1395C62.0862 92.9316 62.0371 90.2084 62.1353 87.9145C62.1967 87.3503 62.2949 86.7983 62.4544 86.234C63.1173 83.8666 64.7744 81.9652 66.8365 80.665C67.5608 80.1989 68.3586 79.8186 69.1933 79.5242C74.1646 77.721 80.7685 78.7023 84.3037 82.5295C85.7398 84.0874 86.6482 86.1481 86.8446 88.8713L86.6604 95.4217ZM95.6579 117.919L97.941 117.857L99.8436 117.808C97.6341 111 98.3706 104.744 103.698 99.4206C104.606 102.34 106.632 104.757 110.081 106.535C111.726 107.762 113.321 109.234 114.868 110.939C115.138 109.81 114.095 108.449 112.83 107.038C113.997 107.615 115.077 108.424 115.838 109.982C116.722 111.785 116.709 113.306 116.415 115.269C116.28 116.177 116.059 117.035 115.74 117.808H118.894C122.221 110.694 120.109 100.132 113.309 95.6547C111.222 94.2809 109.725 94.33 107.27 94.33C104.471 94.33 103.035 94.4158 100.629 96.0105C97.0941 98.3534 94.9091 102.401 94.0008 108.019C93.8167 110.828 93.6939 115.674 95.6579 117.919ZM119.25 71.4773H138.767C138.927 71.4773 139.062 71.5755 139.062 71.6981V77.4634C139.062 77.5861 138.927 77.6842 138.767 77.6842H119.25C119.091 77.6842 118.956 77.5861 118.956 77.4634V71.6981C118.956 71.5755 119.091 71.4773 119.25 71.4773ZM119.25 58.8673H138.767C138.927 58.8673 139.062 58.9654 139.062 59.0881V64.8534C139.062 64.976 138.927 65.0742 138.767 65.0742H119.25C119.091 65.0742 118.956 64.976 118.956 64.8534V59.0881C118.956 58.9654 119.091 58.8673 119.25 58.8673ZM11.9189 71.4773H31.4359C31.5955 71.4773 31.7305 71.5755 31.7305 71.6981V77.4634C31.7305 77.5861 31.5955 77.6842 31.4359 77.6842H11.9189C11.7593 77.6842 11.6243 77.5861 11.6243 77.4634V71.6981C11.6243 71.5755 11.7593 71.4773 11.9189 71.4773ZM11.9189 58.8673H31.4359C31.5955 58.8673 31.7305 58.9654 31.7305 59.0881V64.8534C31.7305 64.976 31.5955 65.0742 31.4359 65.0742H11.9189C11.7593 65.0742 11.6243 64.976 11.6243 64.8534V59.0881C11.6243 58.9654 11.7593 58.8673 11.9189 58.8673ZM87.9738 60.2043H98.3952C98.5548 60.2043 98.6898 60.3393 98.6898 60.4987V70.9131C98.6898 71.0725 98.5548 71.2075 98.3952 71.2075H87.9738C87.8143 71.2075 87.6792 71.0725 87.6792 70.9131V60.4987C87.6792 60.3393 87.8143 60.2043 87.9738 60.2043ZM70.0648 60.2043H80.4862C80.6458 60.2043 80.7808 60.3393 80.7808 60.4987V70.9131C80.7808 71.0725 80.6458 71.2075 80.4862 71.2075H70.0648C69.9053 71.2075 69.7702 71.0725 69.7702 70.9131V60.4987C69.7702 60.3393 69.9053 60.2043 70.0648 60.2043ZM52.1558 60.2043H62.5772C62.7367 60.2043 62.8718 60.3393 62.8718 60.4987V70.9131C62.8718 71.0725 62.7367 71.2075 62.5772 71.2075H52.1558C51.9963 71.2075 51.8612 71.0725 51.8612 70.9131V60.4987C51.8612 60.3393 51.9963 60.2043 52.1558 60.2043ZM87.9738 40.0013H98.3952C98.5548 40.0013 98.6898 40.1362 98.6898 40.2957V50.71C98.6898 50.8695 98.5548 51.0044 98.3952 51.0044H87.9738C87.8143 51.0044 87.6792 50.8695 87.6792 50.71V40.2957C87.6792 40.124 87.8143 40.0013 87.9738 40.0013ZM70.0648 40.0013H80.4862C80.6458 40.0013 80.7808 40.1362 80.7808 40.2957V50.71C80.7808 50.8695 80.6458 51.0044 80.4862 51.0044H70.0648C69.9053 51.0044 69.7702 50.8695 69.7702 50.71V40.2957C69.7702 40.124 69.9053 40.0013 70.0648 40.0013ZM52.1558 40.0013H62.5772C62.7367 40.0013 62.8718 40.1362 62.8718 40.2957V50.71C62.8718 50.8695 62.7367 51.0044 62.5772 51.0044H52.1558C51.9963 51.0044 51.8612 50.8695 51.8612 50.71V40.2957C51.8612 40.124 51.9963 40.0013 52.1558 40.0013Z" fill="black"/>
</svg>
