<svg width="150" height="150" viewBox="0 0 150 150" fill="none" xmlns="http://www.w3.org/2000/svg">
<path fill-rule="evenodd" clip-rule="evenodd" d="M35.512 10H81.5345C85.352 10 88.837 11.5724 91.3195 14.0923C93.8395 16.6349 95.3745 20.1274 95.3745 23.9576V29.897H90.587V25.2201H26.4345V119.784H90.587V108.638L91.302 108.197C92.707 107.318 94.0645 106.355 95.3745 105.307V125.212C95.3745 129.064 93.8195 132.577 91.3195 135.077C88.7945 137.622 85.3345 139.167 81.5345 139.167H35.512C31.6895 139.167 28.2045 137.599 25.722 135.077C23.202 132.539 21.667 129.047 21.667 125.212V23.94C21.667 20.0871 23.222 16.5744 25.722 14.0721C28.242 11.5321 31.6895 10 35.512 10ZM129.167 45.0516V85.5763C129.167 88.4843 126.812 90.858 123.927 90.858H94.5145L81.5945 103.352C81.4019 103.568 81.1664 103.741 80.9033 103.859C80.6401 103.978 80.3552 104.039 80.067 104.039C78.9395 104.039 78.022 103.117 78.022 101.978V90.858H71.192C68.3195 90.858 65.952 88.4742 65.952 85.5763V45.0516C65.952 42.1713 68.3295 39.7699 71.192 39.7699H123.927C126.8 39.7699 129.167 42.1562 129.167 45.0516ZM80.882 72.4603C79.7545 72.4603 78.8395 71.4625 78.8395 70.2302C78.8395 69.0005 79.7545 68.0027 80.882 68.0027H109.14C110.265 68.0027 111.182 69.0005 111.182 70.2302C111.182 71.4625 110.265 72.4603 109.14 72.4603H80.882ZM80.882 59.0949C79.7545 59.0949 78.8395 58.097 78.8395 56.8648C78.8395 55.6351 79.7545 54.6372 80.882 54.6372H115.53C116.657 54.6372 117.572 55.6351 117.572 56.8648C117.572 58.097 116.657 59.0949 115.53 59.0949H80.882ZM58.502 124.151C61.637 124.151 64.1945 126.691 64.1945 129.886C64.1945 133.046 61.6745 135.626 58.502 135.626C55.372 135.626 52.8095 133.084 52.8095 129.886C52.8095 126.731 55.332 124.151 58.502 124.151Z" fill="black"/>
</svg>
