<?xml version="1.0" standalone="no"?><svg xmlns="http://www.w3.org/2000/svg" viewBox="0 0 1440 320"><path fill="#52A5F2" fill-opacity="1" d="M0,288L6.2,266.7C12.3,245,25,203,37,165.3C49.2,128,62,96,74,96C86.2,96,98,128,111,122.7C123.1,117,135,75,148,58.7C160,43,172,53,185,58.7C196.9,64,209,64,222,106.7C233.8,149,246,235,258,277.3C270.8,320,283,320,295,272C307.7,224,320,128,332,117.3C344.6,107,357,181,369,197.3C381.5,213,394,171,406,165.3C418.5,160,431,192,443,192C455.4,192,468,160,480,176C492.3,192,505,256,517,250.7C529.2,245,542,171,554,170.7C566.2,171,578,245,591,277.3C603.1,309,615,299,628,256C640,213,652,139,665,101.3C676.9,64,689,64,702,96C713.8,128,726,192,738,192C750.8,192,763,128,775,128C787.7,128,800,192,812,192C824.6,192,837,128,849,112C861.5,96,874,128,886,154.7C898.5,181,911,203,923,202.7C935.4,203,948,181,960,149.3C972.3,117,985,75,997,53.3C1009.2,32,1022,32,1034,74.7C1046.2,117,1058,203,1071,234.7C1083.1,267,1095,245,1108,224C1120,203,1132,181,1145,160C1156.9,139,1169,117,1182,112C1193.8,107,1206,117,1218,144C1230.8,171,1243,213,1255,208C1267.7,203,1280,149,1292,160C1304.6,171,1317,245,1329,250.7C1341.5,256,1354,192,1366,165.3C1378.5,139,1391,149,1403,176C1415.4,203,1428,245,1434,266.7L1440,288L1440,320L1433.8,320C1427.7,320,1415,320,1403,320C1390.8,320,1378,320,1366,320C1353.8,320,1342,320,1329,320C1316.9,320,1305,320,1292,320C1280,320,1268,320,1255,320C1243.1,320,1231,320,1218,320C1206.2,320,1194,320,1182,320C1169.2,320,1157,320,1145,320C1132.3,320,1120,320,1108,320C1095.4,320,1083,320,1071,320C1058.5,320,1046,320,1034,320C1021.5,320,1009,320,997,320C984.6,320,972,320,960,320C947.7,320,935,320,923,320C910.8,320,898,320,886,320C873.8,320,862,320,849,320C836.9,320,825,320,812,320C800,320,788,320,775,320C763.1,320,751,320,738,320C726.2,320,714,320,702,320C689.2,320,677,320,665,320C652.3,320,640,320,628,320C615.4,320,603,320,591,320C578.5,320,566,320,554,320C541.5,320,529,320,517,320C504.6,320,492,320,480,320C467.7,320,455,320,443,320C430.8,320,418,320,406,320C393.8,320,382,320,369,320C356.9,320,345,320,332,320C320,320,308,320,295,320C283.1,320,271,320,258,320C246.2,320,234,320,222,320C209.2,320,197,320,185,320C172.3,320,160,320,148,320C135.4,320,123,320,111,320C98.5,320,86,320,74,320C61.5,320,49,320,37,320C24.6,320,12,320,6,320L0,320Z"></path></svg>